<svg xmlns="http://www.w3.org/2000/svg" version="1.1" viewBox="0 0 100 100"><g fill-rule="evenodd" fill="none"><g fill="#000" fill-rule="nonzero"><path d="m49.252 0h-0.004c-17.256 0-31.248 13.992-31.248 31.249 0 8.631 3.496 16.442 9.155 22.099 4.387 4.392 7.17 9.761 8.397 15.402h27.399c1.225-5.642 4.008-11.011 8.394-15.402 5.659-5.657 9.155-13.468 9.155-22.099 0-17.257-13.991-31.249-31.248-31.249zm-8.838 40.089l-6.63 6.632c-8.543-8.543-8.543-22.395 0-30.94l6.63 6.63c-4.884 4.883-4.883 12.797 0 17.678z"/><path d="m62.192 78.125h-25.887v8.931c-0.001 7.148 5.791 12.944 12.944 12.944 7.146 0 12.942-5.796 12.942-12.944v-8.931h0.001z"/></g></g></svg>
