<svg xmlns="http://www.w3.org/2000/svg" version="1.1" viewBox="0 0 120 120"><g fill-rule="evenodd" fill="none"><g fill="#000"><path d="m95.564 61.773c0 2.596-1.969 4.696-4.5 4.974h-33.949c-1.386-0.109-2.482-1.243-2.57-2.645v-0.071-0.218-25.849-0.339c0.099-2.727 2.319-4.898 5.073-4.898 2.798 0 5.067 2.269 5.067 5.073v2.847 13.146 0.022c0 0.049-0.01 0.098-0.01 0.141 0 0.049 0.01 0.099 0.01 0.137v0.038c0.071 1.374 1.146 2.449 2.499 2.585l23.678 0.022c2.623 0.175 4.702 2.357 4.702 5.035zm-35.564 46.227c-26.52 0-48-21.48-48-48s21.48-48 48-48 48 21.48 48 48-21.48 48-48 48zm-0.03-108c-33.15 0-59.97 26.85-59.97 60s26.82 60 59.97 60 60.03-26.85 60.03-60-26.88-60-60.03-60z"/></g></g></svg>
