<svg xmlns="http://www.w3.org/2000/svg" version="1.1" viewBox="0 0 100 100"><g fill-rule="evenodd" fill="none"><g fill="#000" fill-rule="nonzero"><ellipse cy="50.202" cx="30.088" rx="5.9179" ry="5.9179"/><ellipse cy="72.242" cx="30.088" rx="5.9179" ry="5.9179"/><ellipse cy="28.111" cx="30.088" rx="5.9179" ry="5.9179"/><path d="m42.549 0.37143v99.294l53.28-49.889-53.28-49.405zm11.644 77.787c-3.268 0-5.918-2.648-5.918-5.918 0-3.267 2.649-5.917 5.918-5.917 3.268 0 5.918 2.648 5.918 5.917 0 3.27-2.649 5.918-5.918 5.918zm0-22.039c-3.268 0-5.918-2.649-5.918-5.918 0-3.268 2.649-5.918 5.918-5.918 3.268 0 5.918 2.649 5.918 5.918s-2.649 5.918-5.918 5.918zm0-21.799c-3.268 0-5.918-2.649-5.918-5.918 0-3.267 2.649-5.917 5.918-5.917 3.268 0 5.918 2.648 5.918 5.917s-2.649 5.918-5.918 5.918zm19.18 21.799c-3.268 0-5.918-2.649-5.918-5.918 0-3.268 2.649-5.918 5.918-5.918 3.267 0 5.917 2.649 5.917 5.918-0.001 3.269-2.65 5.918-5.917 5.918z"/><ellipse cy="50.202" cx="10.556" rx="5.9179" ry="5.9179"/></g></g></svg>
