<svg xmlns="http://www.w3.org/2000/svg" version="1.1" viewBox="0 0 120 120"><g fill-rule="evenodd" fill="none"><g fill="#000"><path d="m31.418 23.4l-9.818-9.764-7.691 7.691 9.764 9.764 7.745-7.691zm-15.054 30.873h-16.364v10.909h16.364v-10.909zm49.091-54.273h-10.91v16.091h10.91v-16.091 7.1862e-15zm40.635 21.327l-7.69-7.691-9.764 9.764 7.691 7.691 9.763-9.764zm-17.508 74.728l9.763 9.815 7.695-7.688-9.822-9.764-7.636 7.637zm15.058-41.782v10.909h16.36v-10.909h-16.36zm-43.64-27.273c-18.055 0-32.727 14.673-32.727 32.727 0 18.055 14.672 32.728 32.727 32.728s32.727-14.673 32.727-32.728c0-18.054-14.672-32.727-32.727-32.727zm-5.455 92.45h10.91v-16.09h-10.91v16.09zm-40.636-21.323l7.691 7.693 9.764-9.82-7.691-7.691-9.764 9.818z"/></g></g></svg>
