<svg xmlns="http://www.w3.org/2000/svg" version="1.1" viewBox="0 0 120 120"><g fill-rule="evenodd" fill="none"><g fill="#000"><path d="m59.524 0c32.874 0 59.526 26.336 59.526 58.824 0 32.487-26.652 58.826-59.526 58.826-32.871 0-59.524-26.339-59.524-58.826 0-32.488 26.653-58.824 59.524-58.824zm-7.546 89.502c1.04 1.093 2.528 1.643 4.472 1.643 1.939 0 3.438-0.56 4.492-1.685 1.054-1.117 1.583-2.64 1.583-4.56 0-1.945-0.522-3.454-1.562-4.523-1.04-1.066-2.546-1.598-4.513-1.598-4.024 0-6.033 2.041-6.033 6.121 0 1.972 0.521 3.505 1.561 4.602zm8.162-19.367c0-2.19 0.431-3.931 1.296-5.232 0.857-1.297 2.563-2.934 5.108-4.903 2.98-2.298 5.081-4.163 6.299-5.595 1.219-1.433 2.125-2.938 2.728-4.519 0.602-1.582 0.903-3.388 0.903-5.415 0-4.568-1.572-8.149-4.72-10.744-3.148-2.596-7.398-3.893-12.762-3.893-6.345 0-12.294 1.529-17.847 4.581l3.449 7.135c2.104-1.028 4.265-1.906 6.481-2.637 2.216-0.73 4.622-1.096 7.22-1.096 2.874 0 5.073 0.609 6.607 1.827 1.53 1.218 2.297 2.958 2.297 5.228 0 1.948-0.473 3.623-1.418 5.028-0.946 1.404-3.046 3.38-6.299 5.92-2.738 2.107-4.65 4.149-5.746 6.121-1.092 1.976-1.642 4.447-1.642 7.422v2.595h8.046v-1.823z"/></g></g></svg>
