<svg xmlns="http://www.w3.org/2000/svg" version="1.1" viewBox="0 0 120 120"><g fill-rule="evenodd" fill="none"><g fill="#000"><path d="m60 0c33.138 0 60 26.862 60 60s-26.862 60-60 60-60-26.862-60-60 26.862-60 60-60zm0 7.0588c29.238 0 52.94 23.703 52.94 52.941s-23.702 52.94-52.94 52.94-52.941-23.702-52.941-52.94c-0.0002-29.238 23.703-52.941 52.941-52.941zm-7.609 84.229c1.048 1.116 2.551 1.677 4.507 1.677 1.955 0 3.466-0.572 4.528-1.716 1.062-1.143 1.592-2.696 1.592-4.651 0-1.984-0.523-3.523-1.571-4.613-1.048-1.091-2.566-1.634-4.549-1.634-4.052 0-6.082 2.082-6.082 6.247 0 2.008 0.526 3.575 1.575 4.69zm8.23-17.887v-1.86c0-2.234 0.434-4.013 1.303-5.336 0.868-1.324 2.583-2.993 5.149-5.005 3.007-2.344 5.121-4.246 6.349-5.707 1.229-1.461 2.143-3 2.75-4.613s0.91-3.455 0.91-5.52c0-4.659-1.584-8.312-4.757-10.959s-7.458-3.97-12.865-3.97c-6.395 0-12.395 1.556-17.993 4.673l3.473 7.277c2.125-1.048 4.302-1.945 6.536-2.689 2.235-0.745 4.659-1.116 7.278-1.116 2.894 0 5.114 0.622 6.66 1.86 1.546 1.239 2.315 3.018 2.315 5.337 0 1.983-0.476 3.695-1.425 5.128-0.95 1.433-3.068 3.448-6.35 6.039-2.756 2.149-4.687 4.232-5.792 6.247-1.104 2.015-1.655 4.535-1.655 7.571v2.647h8.114v-0.004z"/></g></g></svg>
