<svg version="1.1" viewBox="0 0 25 25" xmlns="http://www.w3.org/2000/svg"><g fill="none" fill-rule="evenodd"><g fill="#000" fill-rule="nonzero"><path d="m12.488 0c-6.9 0-12.488 5.6-12.488 12.5s5.5875 12.5 12.488 12.5c6.9125 0 12.512-5.6 12.512-12.5s-5.6-12.5-12.512-12.5zm8.6625 7.5h-3.6875c-0.4-1.5625-0.975-3.0625-1.725-4.45 2.3 0.7875 4.2125 2.3875 5.4125 4.45zm-8.65-4.95c1.0375 1.5 1.85 3.1625 2.3875 4.95h-4.775c0.5375-1.7875 1.35-3.45 2.3875-4.95zm-9.675 12.45c-0.2-0.8-0.325-1.6375-0.325-2.5s0.125-1.7 0.325-2.5h4.225c-0.1 0.825-0.175 1.65-0.175 2.5s0.075 1.675 0.175 2.5h-4.225zm1.025 2.5h3.6875c0.4 1.5625 0.975 3.0625 1.725 4.45-2.3-0.7875-4.2125-2.375-5.4125-4.45zm3.6875-10h-3.6875c1.2-2.075 3.1125-3.6625 5.4125-4.45-0.75 1.3875-1.325 2.8875-1.725 4.45zm4.9625 14.95c-1.0375-1.5-1.85-3.1625-2.3875-4.95h4.775c-0.5375 1.7875-1.35 3.45-2.3875 4.95zm2.925-7.45h-5.85c-0.1125-0.825-0.2-1.65-0.2-2.5s0.0875-1.6875 0.2-2.5h5.85c0.1125 0.8125 0.2 1.65 0.2 2.5s-0.0875 1.675-0.2 2.5zm0.3125 6.95c0.75-1.3875 1.325-2.8875 1.725-4.45h3.6875c-1.2 2.0625-3.1125 3.6625-5.4125 4.45zm2.2125-6.95c0.1-0.825 0.175-1.65 0.175-2.5s-0.075-1.675-0.175-2.5h4.225c0.2 0.8 0.325 1.6375 0.325 2.5s-0.125 1.7-0.325 2.5h-4.225z"/></g></g></svg>
