<svg xmlns="http://www.w3.org/2000/svg" version="1.1" viewBox="0 0 120 120"><g fill-rule="evenodd" fill="none"><g fill="#004e7a"><path d="m101.2 65.677c0.23-1.914 0.41-3.828 0.41-5.862 0-2.033-0.18-3.947-0.41-5.862l12.44-9.869c1.12-0.897 1.42-2.512 0.71-3.828l-11.8-20.696c-0.71-1.316-2.3-1.795-3.595-1.316l-14.685 5.981c-3.066-2.392-6.369-4.366-9.966-5.862l-2.241-15.851c-0.177-1.4353-1.416-2.512-2.89-2.512l-23.59-7.1054e-15c-1.474 0-2.713 1.0767-2.89 2.5122l-2.241 15.851c-3.597 1.496-6.9 3.529-9.966 5.862l-14.685-5.981c-1.356-0.539-2.89 0-3.597 1.316l-11.795 20.696c-0.76679 1.316-0.41294 2.931 0.7076 3.828l12.443 9.869c-0.236 1.915-0.413 3.888-0.413 5.862s0.177 3.948 0.413 5.862l-12.443 9.87c-1.1209 0.897-1.4158 2.512-0.70812 3.828l11.795 20.695c0.707 1.32 2.3 1.8 3.597 1.32l14.685-5.984c3.066 2.392 6.369 4.366 9.966 5.864l2.241 15.85c0.177 1.43 1.416 2.51 2.89 2.51h23.59c1.474 0 2.713-1.08 2.89-2.51l2.241-15.85c3.597-1.498 6.9-3.532 9.966-5.864l14.685 5.984c1.355 0.54 2.885 0 3.595-1.32l11.8-20.695c0.71-1.316 0.41-2.931-0.71-3.828l-12.44-9.87zm-43.822 15.074c-11.382 0-20.641-9.391-20.641-20.936 0-11.544 9.259-20.935 20.641-20.935s20.641 9.391 20.641 20.935c0 11.545-9.259 20.936-20.641 20.936z"/></g></g></svg>
