<svg xmlns="http://www.w3.org/2000/svg" version="1.1" viewBox="0 0 100 100"><g fill-rule="evenodd" fill="none"><g fill="#000"><path d="m40.076 64.632h-25.869l-5.8101 16.115h-8.3969l23.579-61.747h7.125l23.622 61.747h-8.355l-5.895-16.115zm-23.409-6.701h20.992l-10.517-28.88-10.475 28.88zm75.106 22.816c-0.283-0.565-0.509-1.279-0.679-2.141-0.169-0.863-0.311-1.76-0.424-2.693-0.735 0.763-1.562 1.491-2.481 2.184-0.919 0.692-1.922 1.3-3.011 1.823-1.088 0.523-2.269 0.933-3.541 1.23s-2.615 0.445-4.029 0.445c-2.346 0-4.474-0.353-6.382-1.06-1.909-0.707-3.534-1.668-4.877-2.884-1.343-1.215-2.382-2.65-3.117-4.304-0.736-1.654-1.103-3.428-1.103-5.322 0-2.46 0.481-4.63 1.442-6.51s2.339-3.456 4.135-4.729c1.795-1.272 3.965-2.233 6.509-2.884 2.545-0.65 5.386-0.975 8.525-0.975h7.803v-3.605c0-2.742-0.82-4.926-2.46-6.552s-4.057-2.438-7.252-2.438c-1.47 0-2.813 0.198-4.029 0.593-1.215 0.396-2.254 0.926-3.117 1.591-0.862 0.664-1.533 1.435-2.014 2.311s-0.721 1.795-0.721 2.757h-7.888c0-1.64 0.431-3.266 1.293-4.877 0.863-1.612 2.085-3.061 3.669-4.347 1.583-1.287 3.498-2.333 5.746-3.139 2.248-0.805 4.757-1.208 7.528-1.208 2.488 0 4.785 0.318 6.891 0.954s3.909 1.597 5.407 2.884c1.499 1.286 2.672 2.891 3.52 4.813 0.848 1.923 1.272 4.17 1.272 6.743v21.332c0 1.555 0.135 3.187 0.403 4.898 0.269 1.71 0.672 3.188 1.209 4.432v0.678h-8.227zm-13.02-5.979c1.414 0 2.743-0.198 3.987-0.594s2.374-0.912 3.392-1.548 1.902-1.364 2.651-2.184 1.336-1.668 1.76-2.545v-9.414h-6.531c-4.495 0-7.959 0.699-10.39 2.099-2.432 1.399-3.647 3.513-3.647 6.34 0 1.103 0.183 2.135 0.551 3.096 0.367 0.961 0.926 1.788 1.675 2.481 0.749 0.692 1.668 1.244 2.757 1.654 1.088 0.41 2.353 0.615 3.795 0.615z"/></g></g></svg>
