<svg xmlns="http://www.w3.org/2000/svg" version="1.1" viewBox="0 0 120 120"><g fill-rule="evenodd" fill="none"><g fill="#000"><g transform="translate(5)"><path d="m47.64 103.01c4.266 1.41 9.1-0.3 11.474-4.324l29.657-50.228v49.932c0 4.42-3.578 8-7.997 8h-59.236c-4.417 0-7.998-3.58-7.998-8v-59.597c0-4.419 3.578-8.001 7.998-8.001h56.539l-25.692 43.511c-2.097-5.791-5.683-15.69-5.683-15.69-1.697-4.685-6.859-7.108-11.526-5.401-4.669 1.707-7.074 6.894-5.374 11.586l11.805 32.593c0.897 2.478 2.756 4.319 4.998 5.259l0.213 0.12c-0.065-0.04-0.13-0.07-0.195-0.11 0.332 0.13 0.671 0.25 1.017 0.35zm37.99-85.01h-77.623c-4.4243 0-8.007 3.583-8.007 8.004v85.996c0 4.41 3.5849 8 8.0071 8h85.488c4.424 0 8.005-3.58 8.005-8v-85.103l7.65-12.959c2.73-4.6156 1.19-10.532-3.44-13.216l1.02 0.5882c-4.63-2.6834-10.589-1.112-13.311 3.4988l-7.789 13.191z"/></g></g></g></svg>
