<svg xmlns="http://www.w3.org/2000/svg" version="1.1" viewBox="0 0 120 120"><g fill-rule="evenodd" fill="none"><g fill="#000"><g transform="translate(5 18)"><path d="m0 8.0038c0-4.4204 3.5827-8.0038 8.0071-8.0038l85.488 6.3949e-14c4.422 0 8.005 3.5853 8.005 8.0038v85.992c0 4.421-3.581 8.004-8.005 8.004h-85.488c-4.4221 0-8.007-3.585-8.007-8.004v-85.992zm13.54 12.789c0-4.419 3.578-8.001 7.998-8.001h59.236c4.416 0 7.997 3.582 7.997 8.001v59.597c0 4.419-3.578 8.002-7.997 8.002h-59.236c-4.417 0-7.998-3.583-7.998-8.002v-59.597z"/></g></g></g></svg>
